<mxfile host="app.diagrams.net" agent="Mozilla/5.0 (Windows NT 10.0; Win64; x64) AppleWebKit/537.36 (KHTML, like Gecko) Chrome/134.0.0.0 Safari/537.36" version="24.8.6">
  <diagram name="第 1 页" id="yxKMci5bcxgAL2FXYsYs">
    <mxGraphModel dx="1436" dy="767" grid="1" gridSize="10" guides="1" tooltips="1" connect="1" arrows="1" fold="1" page="1" pageScale="1" pageWidth="827" pageHeight="1169" math="0" shadow="0">
      <root>
        <mxCell id="0" />
        <mxCell id="1" parent="0" />
        <mxCell id="OGUA6FDpuR5wSM6QR1XY-2" value="&lt;b&gt;&lt;font style=&quot;font-size: 14px;&quot;&gt;获取 NodePort 类&lt;/font&gt;&lt;/b&gt;" style="text;strokeColor=none;align=center;fillColor=none;html=1;verticalAlign=middle;whiteSpace=wrap;rounded=0;" vertex="1" parent="1">
          <mxGeometry x="70" y="180" width="140" height="30" as="geometry" />
        </mxCell>
        <mxCell id="OGUA6FDpuR5wSM6QR1XY-9" style="edgeStyle=orthogonalEdgeStyle;rounded=0;orthogonalLoop=1;jettySize=auto;html=1;exitX=0.5;exitY=1;exitDx=0;exitDy=0;entryX=0.5;entryY=0;entryDx=0;entryDy=0;" edge="1" parent="1" source="OGUA6FDpuR5wSM6QR1XY-4" target="OGUA6FDpuR5wSM6QR1XY-5">
          <mxGeometry relative="1" as="geometry" />
        </mxCell>
        <mxCell id="OGUA6FDpuR5wSM6QR1XY-22" style="edgeStyle=orthogonalEdgeStyle;rounded=0;orthogonalLoop=1;jettySize=auto;html=1;exitX=1;exitY=0.5;exitDx=0;exitDy=0;entryX=0;entryY=0.5;entryDx=0;entryDy=0;" edge="1" parent="1" source="OGUA6FDpuR5wSM6QR1XY-4" target="OGUA6FDpuR5wSM6QR1XY-19">
          <mxGeometry relative="1" as="geometry" />
        </mxCell>
        <mxCell id="OGUA6FDpuR5wSM6QR1XY-4" value="&lt;span style=&quot;font-size: 14px; text-align: left;&quot;&gt;利用 selector&amp;nbsp;&lt;/span&gt;&lt;div&gt;&lt;span style=&quot;font-size: 14px; text-align: left;&quot;&gt;筛选某个 pod 对应的 svc&lt;/span&gt;&lt;/div&gt;" style="rounded=0;whiteSpace=wrap;html=1;" vertex="1" parent="1">
          <mxGeometry x="120" y="70" width="180" height="60" as="geometry" />
        </mxCell>
        <mxCell id="OGUA6FDpuR5wSM6QR1XY-10" style="edgeStyle=orthogonalEdgeStyle;rounded=0;orthogonalLoop=1;jettySize=auto;html=1;exitX=0.5;exitY=1;exitDx=0;exitDy=0;entryX=0.5;entryY=0;entryDx=0;entryDy=0;" edge="1" parent="1" source="OGUA6FDpuR5wSM6QR1XY-5" target="OGUA6FDpuR5wSM6QR1XY-7">
          <mxGeometry relative="1" as="geometry" />
        </mxCell>
        <mxCell id="OGUA6FDpuR5wSM6QR1XY-5" value="&lt;div style=&quot;text-align: left;&quot;&gt;&lt;span style=&quot;background-color: initial; font-size: 14px;&quot;&gt;&amp;nbsp;筛选&amp;nbsp;&lt;/span&gt;&lt;span style=&quot;background-color: initial;&quot;&gt;TYPE 为 NodePort 类的&lt;/span&gt;&lt;/div&gt;" style="rounded=0;whiteSpace=wrap;html=1;" vertex="1" parent="1">
          <mxGeometry x="120" y="260" width="180" height="60" as="geometry" />
        </mxCell>
        <mxCell id="OGUA6FDpuR5wSM6QR1XY-7" value="&lt;font style=&quot;font-size: 14px;&quot;&gt;读取：&lt;/font&gt;&lt;div style=&quot;font-size: 14px;&quot;&gt;&lt;font style=&quot;font-size: 14px;&quot;&gt;1. 容器端口&lt;/font&gt;&lt;/div&gt;&lt;div style=&quot;font-size: 14px;&quot;&gt;&lt;font style=&quot;font-size: 14px;&quot;&gt;2. NodePort端口&lt;/font&gt;&lt;/div&gt;" style="rounded=0;whiteSpace=wrap;html=1;fillColor=#dae8fc;strokeColor=#6c8ebf;" vertex="1" parent="1">
          <mxGeometry x="150" y="450" width="120" height="60" as="geometry" />
        </mxCell>
        <mxCell id="OGUA6FDpuR5wSM6QR1XY-8" value="NAME                                                      TYPE        CLUSTER-IP     EXTERNAL-IP   PORT(S)                 AGE&#xa;jupyter-liujh24-5db26-default0-0-83b7f    NodePort    10.1.249.221   &lt;none&gt;              22:30755/TCP        15d" style="text;whiteSpace=wrap;" vertex="1" parent="1">
          <mxGeometry x="57.5" y="569" width="660" height="40" as="geometry" />
        </mxCell>
        <mxCell id="OGUA6FDpuR5wSM6QR1XY-32" style="edgeStyle=orthogonalEdgeStyle;rounded=0;orthogonalLoop=1;jettySize=auto;html=1;exitX=0.5;exitY=1;exitDx=0;exitDy=0;entryX=1;entryY=0.5;entryDx=0;entryDy=0;" edge="1" parent="1" source="OGUA6FDpuR5wSM6QR1XY-18" target="OGUA6FDpuR5wSM6QR1XY-26">
          <mxGeometry relative="1" as="geometry" />
        </mxCell>
        <mxCell id="OGUA6FDpuR5wSM6QR1XY-18" value="&lt;div style=&quot;text-align: left;&quot;&gt;&lt;span style=&quot;background-color: initial; font-size: 14px;&quot;&gt;预筛选 Ingress:&lt;/span&gt;&lt;/div&gt;&lt;div style=&quot;text-align: left;&quot;&gt;&lt;span style=&quot;background-color: initial; font-size: 14px;&quot;&gt;匹配所有 { jobName } 开头的 ingress 规则即可&lt;/span&gt;&lt;/div&gt;" style="rounded=0;whiteSpace=wrap;html=1;" vertex="1" parent="1">
          <mxGeometry x="717.5" y="230" width="310" height="60" as="geometry" />
        </mxCell>
        <mxCell id="OGUA6FDpuR5wSM6QR1XY-25" style="edgeStyle=orthogonalEdgeStyle;rounded=0;orthogonalLoop=1;jettySize=auto;html=1;exitX=0.5;exitY=1;exitDx=0;exitDy=0;entryX=0.5;entryY=0;entryDx=0;entryDy=0;" edge="1" parent="1" source="OGUA6FDpuR5wSM6QR1XY-19" target="OGUA6FDpuR5wSM6QR1XY-23">
          <mxGeometry relative="1" as="geometry" />
        </mxCell>
        <mxCell id="OGUA6FDpuR5wSM6QR1XY-19" value="&lt;div style=&quot;text-align: left;&quot;&gt;&lt;span style=&quot;background-color: initial; font-size: 14px;&quot;&gt;&amp;nbsp;筛选&amp;nbsp;&lt;/span&gt;&lt;span style=&quot;background-color: initial;&quot;&gt;TYPE 为 ClusterIP 类的&lt;/span&gt;&lt;/div&gt;" style="rounded=0;whiteSpace=wrap;html=1;" vertex="1" parent="1">
          <mxGeometry x="500" y="70" width="180" height="60" as="geometry" />
        </mxCell>
        <mxCell id="OGUA6FDpuR5wSM6QR1XY-21" value="&lt;b&gt;&lt;font style=&quot;font-size: 14px;&quot;&gt;获取 Ingress 类&lt;/font&gt;&lt;/b&gt;" style="text;strokeColor=none;align=center;fillColor=none;html=1;verticalAlign=middle;whiteSpace=wrap;rounded=0;" vertex="1" parent="1">
          <mxGeometry x="344" y="60" width="140" height="30" as="geometry" />
        </mxCell>
        <mxCell id="OGUA6FDpuR5wSM6QR1XY-31" style="edgeStyle=orthogonalEdgeStyle;rounded=0;orthogonalLoop=1;jettySize=auto;html=1;exitX=0.5;exitY=1;exitDx=0;exitDy=0;entryX=0.5;entryY=0;entryDx=0;entryDy=0;" edge="1" parent="1" source="OGUA6FDpuR5wSM6QR1XY-23" target="OGUA6FDpuR5wSM6QR1XY-26">
          <mxGeometry relative="1" as="geometry" />
        </mxCell>
        <mxCell id="OGUA6FDpuR5wSM6QR1XY-23" value="&lt;font style=&quot;font-size: 14px;&quot;&gt;读取：&lt;/font&gt;&lt;div style=&quot;font-size: 14px;&quot;&gt;&lt;font style=&quot;font-size: 14px;&quot;&gt;1. 容器端口&lt;/font&gt;&lt;/div&gt;&lt;div style=&quot;font-size: 14px;&quot;&gt;&lt;font style=&quot;font-size: 14px;&quot;&gt;2. 当前 svc 名称&lt;/font&gt;&lt;/div&gt;" style="rounded=0;whiteSpace=wrap;html=1;fillColor=#dae8fc;strokeColor=#6c8ebf;" vertex="1" parent="1">
          <mxGeometry x="530" y="230" width="120" height="60" as="geometry" />
        </mxCell>
        <mxCell id="OGUA6FDpuR5wSM6QR1XY-34" style="edgeStyle=orthogonalEdgeStyle;rounded=0;orthogonalLoop=1;jettySize=auto;html=1;exitX=0.5;exitY=1;exitDx=0;exitDy=0;entryX=0.5;entryY=0;entryDx=0;entryDy=0;" edge="1" parent="1" source="OGUA6FDpuR5wSM6QR1XY-26" target="OGUA6FDpuR5wSM6QR1XY-33">
          <mxGeometry relative="1" as="geometry" />
        </mxCell>
        <mxCell id="OGUA6FDpuR5wSM6QR1XY-26" value="&lt;div style=&quot;text-align: left; font-size: 14px;&quot;&gt;&lt;div&gt;在 预筛选 ingress 的结果中&amp;nbsp;&lt;/div&gt;&lt;div&gt;查找关联目标 svc 的 Ingress&lt;/div&gt;&lt;/div&gt;" style="rounded=0;whiteSpace=wrap;html=1;" vertex="1" parent="1">
          <mxGeometry x="462.5" y="360" width="255" height="60" as="geometry" />
        </mxCell>
        <mxCell id="OGUA6FDpuR5wSM6QR1XY-33" value="&lt;font style=&quot;font-size: 14px;&quot;&gt;读取：&lt;/font&gt;&lt;div style=&quot;font-size: 14px;&quot;&gt;&lt;font style=&quot;font-size: 14px;&quot;&gt;1. Paths.PATH&lt;br&gt;&lt;/font&gt;&lt;/div&gt;" style="rounded=0;whiteSpace=wrap;html=1;fillColor=#dae8fc;strokeColor=#6c8ebf;" vertex="1" parent="1">
          <mxGeometry x="530" y="470" width="120" height="60" as="geometry" />
        </mxCell>
        <UserObject label="NAME                                                      TYPE        CLUSTER-IP     EXTERNAL-IP   PORT(S)                     AGE&#xa;jupyter-liyilong-86199-default0-0-f0e03   ClusterIP   10.1.7.212          &lt;none&gt;              80/TCP                      5d3h&#xa;&#xa;NAME                                                      CLASS   HOSTS                                                      ADDRESS        PORTS     AGE&#xa;jupyter-liyilong-86199-default0-0-dd081   nginx   crater.act.buaa.edu.cn                                192.168.5.57   80, 443      6d20h" link="NAME                                      TYPE        CLUSTER-IP     EXTERNAL-IP   PORT(S)                     AGE&#xa;jupyter-liyilong-86199-default0-0-f0e03   ClusterIP   10.1.7.212     &lt;none&gt;        80/TCP                      5d3h&#xa;&#xa;&#xa;jupyter-liyilong-86199-default0-0-dd081   nginx   crater.act.buaa.edu.cn                                      192.168.5.57   80, 443   6d20h" id="OGUA6FDpuR5wSM6QR1XY-35">
          <mxCell style="text;whiteSpace=wrap;" vertex="1" parent="1">
            <mxGeometry x="57.5" y="649" width="740" height="90" as="geometry" />
          </mxCell>
        </UserObject>
      </root>
    </mxGraphModel>
  </diagram>
</mxfile>
